<svg width="47" height="47" viewBox="0 0 47 47" fill="none" xmlns="http://www.w3.org/2000/svg">
<rect x="1.47461" y="1.38782" width="44.67" height="44.6684" rx="16.5" stroke="#E2E2E2"/>
<path d="M32.3096 23.722C32.3096 24.0979 32.1654 24.4612 31.896 24.7243C31.6328 24.9936 31.2694 25.1439 30.8934 25.1439H25.2288V30.8064C25.2288 31.1823 25.0785 31.5456 24.809 31.8086C24.5458 32.0717 24.1887 32.222 23.8127 32.222C23.4367 32.222 23.0733 32.0717 22.8101 31.8086C22.5407 31.5456 22.3903 31.1823 22.3903 30.8064V25.1439H16.7257C16.3497 25.1439 15.9863 24.9936 15.7231 24.7243C15.46 24.4612 15.3096 24.0979 15.3096 23.722C15.3096 23.3462 15.46 22.9892 15.7231 22.7198C15.9863 22.4568 16.3497 22.3064 16.7257 22.3064H22.3903V16.6439C22.3903 16.2681 22.5407 15.9048 22.8101 15.6417C23.0733 15.3724 23.4367 15.222 23.8127 15.222C24.1887 15.222 24.5458 15.3724 24.809 15.6417C25.0785 15.9048 25.2288 16.2681 25.2288 16.6439V22.3064H30.8934C31.2694 22.3064 31.6328 22.4568 31.896 22.7198C32.1654 22.9892 32.3096 23.3462 32.3096 23.722Z" fill="#53B175"/>
</svg>
