<svg width="47" height="46" viewBox="0 0 47 46" fill="none" xmlns="http://www.w3.org/2000/svg">
<rect x="0.90918" y="0.803467" width="44.67" height="44.6684" rx="16.5" stroke="#F0F0F0"/>
<path d="M31.7441 23.1377C31.7441 23.5135 31.6 23.8768 31.3306 24.1399C31.0674 24.4092 30.704 24.5596 30.328 24.5596H24.6634H21.8249H16.1603C15.7843 24.5596 15.4209 24.4092 15.1577 24.1399C14.8945 23.8768 14.7441 23.5135 14.7441 23.1377C14.7441 22.7618 14.8945 22.4048 15.1577 22.1355C15.4209 21.8724 15.7843 21.722 16.1603 21.722H21.8249H24.6634H30.328C30.704 21.722 31.0674 21.8724 31.3306 22.1355C31.6 22.4048 31.7441 22.7618 31.7441 23.1377Z" fill="#53B175"/>
</svg>
