<svg width="25" height="25" viewBox="0 0 25 25" fill="none" xmlns="http://www.w3.org/2000/svg">
<g clip-path="url(#clip0_41_982)">
<path d="M4.93092 11.8434L12.755 19.6675L20.5791 11.8434C21.2709 11.1517 21.6595 10.2135 21.6595 9.23519C21.6595 8.25691 21.2709 7.3187 20.5791 6.62696C20.2366 6.28444 19.83 6.01274 19.3825 5.82737C18.9349 5.642 18.4553 5.54659 17.9709 5.54659C16.9926 5.54659 16.0544 5.93521 15.3626 6.62696L12.755 9.23458L10.1474 6.62818C9.45389 5.94572 8.5188 5.56494 7.54581 5.56878C6.57283 5.57263 5.64078 5.96079 4.95269 6.64872C4.26459 7.33665 3.87621 8.26861 3.87213 9.2416C3.86806 10.2146 4.24862 11.1498 4.93092 11.8434ZM11.8858 4.88731L12.755 5.75652L13.6242 4.88731C14.1941 4.31239 14.872 3.8557 15.6189 3.54345C16.3657 3.23121 17.1669 3.06956 17.9765 3.06779C18.786 3.06601 19.5879 3.22415 20.3361 3.53312C21.0844 3.8421 21.7642 4.29581 22.3366 4.86823C22.909 5.44065 23.3628 6.12049 23.6717 6.86873C23.9807 7.61697 24.1388 8.41887 24.1371 9.22839C24.1353 10.0379 23.9736 10.8391 23.6614 11.586C23.3491 12.3329 22.8925 13.0107 22.3175 13.5806L13.6255 22.2739C13.5113 22.3882 13.3757 22.4789 13.2264 22.5408C13.0772 22.6027 12.9172 22.6345 12.7556 22.6345C12.5941 22.6345 12.4341 22.6027 12.2848 22.5408C12.1356 22.4789 12 22.3882 11.8858 22.2739L3.19251 13.5818C2.60977 13.0138 2.14563 12.3356 1.82701 11.5868C1.5084 10.838 1.34164 10.0333 1.33643 9.2195C1.33122 8.4057 1.48764 7.59897 1.79664 6.84611C2.10563 6.09324 2.56105 5.40922 3.13646 4.83373C3.71187 4.25823 4.39582 3.80273 5.14865 3.49362C5.90147 3.18452 6.70818 3.02798 7.52198 3.03308C8.33577 3.03818 9.14045 3.20482 9.88935 3.52333C10.6382 3.84184 11.3164 4.30588 11.8846 4.88854L11.8858 4.88731Z" fill="#181725"/>
</g>
<defs>
<clipPath id="clip0_41_982">
<rect width="24" height="24" fill="white" transform="translate(0.236694 0.83374)"/>
</clipPath>
</defs>
</svg>
