<svg width="18" height="18" viewBox="0 0 18 18" fill="none" xmlns="http://www.w3.org/2000/svg">
<path d="M17.1292 8.6123C17.1292 8.98813 16.985 9.35144 16.7156 9.61452C16.4524 9.88386 16.089 10.0342 15.713 10.0342H10.0484V15.6967C10.0484 16.0725 9.89804 16.4358 9.6286 16.6989C9.36542 16.962 9.00825 17.1123 8.63228 17.1123C8.25632 17.1123 7.89288 16.962 7.6297 16.6989C7.36026 16.4358 7.20987 16.0725 7.20987 15.6967V10.0342H1.54529C1.16933 10.0342 0.805892 9.88386 0.542715 9.61452C0.279537 9.35144 0.12915 8.98813 0.12915 8.6123C0.12915 8.23647 0.279537 7.87944 0.542715 7.61009C0.805892 7.34701 1.16933 7.19668 1.54529 7.19668H7.20987V1.53419C7.20987 1.15836 7.36026 0.795061 7.6297 0.53198C7.89288 0.262636 8.25632 0.112305 8.63228 0.112305C9.00825 0.112305 9.36542 0.262636 9.6286 0.53198C9.89804 0.795061 10.0484 1.15836 10.0484 1.53419V7.19668H15.713C16.089 7.19668 16.4524 7.34701 16.7156 7.61009C16.985 7.87944 17.1292 8.23647 17.1292 8.6123Z" fill="white"/>
</svg>
